<mxfile host="app.diagrams.net" modified="2023-01-03T21:16:32.062Z" agent="5.0 (Macintosh; Intel Mac OS X 10_15_7) AppleWebKit/605.1.15 (KHTML, like Gecko) Version/16.1 Safari/605.1.15" etag="CKzbiBJAeIw8E9MI2p9B" version="20.8.1" type="github" pages="2">
  <diagram name="Page-1" id="b5b7bab2-c9e2-2cf4-8b2a-24fd1a2a6d21">
    <mxGraphModel dx="2390" dy="1337" grid="1" gridSize="10" guides="1" tooltips="1" connect="1" arrows="1" fold="1" page="1" pageScale="1" pageWidth="1654" pageHeight="1169" background="none" math="0" shadow="0">
      <root>
        <mxCell id="0" />
        <mxCell id="1" parent="0" />
        <mxCell id="wd0n0IJal98J9tUCrlXF-1" value="&lt;div&gt;&amp;lt;&amp;lt;device&amp;gt;&amp;gt;&lt;/div&gt;&lt;div&gt;&lt;b&gt;&lt;font style=&quot;font-size: 20px;&quot;&gt;Web&lt;/font&gt;&lt;/b&gt;&lt;/div&gt;" style="verticalAlign=top;align=center;spacingTop=8;spacingLeft=2;spacingRight=12;shape=cube;size=10;direction=south;fontStyle=4;html=1;" parent="1" vertex="1">
          <mxGeometry x="20" y="250" width="340" height="300" as="geometry" />
        </mxCell>
        <mxCell id="wd0n0IJal98J9tUCrlXF-2" value="Web Browser" style="verticalAlign=top;align=left;spacingTop=8;spacingLeft=2;spacingRight=12;shape=cube;size=10;direction=south;fontStyle=4;html=1;" parent="1" vertex="1">
          <mxGeometry x="40" y="320" width="283.03" height="210" as="geometry" />
        </mxCell>
        <mxCell id="wd0n0IJal98J9tUCrlXF-3" value="&lt;p style=&quot;margin:0px;margin-top:6px;text-align:center;&quot;&gt;&lt;b&gt;&amp;lt;&amp;lt; application &amp;gt;&amp;gt;&lt;/b&gt;&lt;/p&gt;&lt;hr&gt;&lt;p style=&quot;margin:0px;margin-left:8px;&quot;&gt;Portal Client Module&lt;/p&gt;" style="align=left;overflow=fill;html=1;dropTarget=0;" parent="1" vertex="1">
          <mxGeometry x="70" y="360" width="220" height="150" as="geometry" />
        </mxCell>
        <mxCell id="wd0n0IJal98J9tUCrlXF-4" value="" style="shape=component;jettyWidth=8;jettyHeight=4;" parent="wd0n0IJal98J9tUCrlXF-3" vertex="1">
          <mxGeometry x="1" width="20" height="20" relative="1" as="geometry">
            <mxPoint x="-24" y="4" as="offset" />
          </mxGeometry>
        </mxCell>
        <mxCell id="wd0n0IJal98J9tUCrlXF-5" value="&lt;p style=&quot;margin:0px;margin-top:6px;text-align:center;&quot;&gt;&lt;/p&gt;&lt;p style=&quot;text-align: center; margin: 0px 0px 0px 8px;&quot;&gt;&lt;b&gt;&amp;lt;&amp;lt; artifact &amp;gt;&amp;gt;&lt;/b&gt;&lt;/p&gt;&lt;p style=&quot;text-align: center; margin: 0px 0px 0px 8px;&quot;&gt;&lt;b&gt;&lt;br&gt;&lt;/b&gt;&lt;/p&gt;&lt;p style=&quot;text-align: center; margin: 0px 0px 0px 8px;&quot;&gt;Scripts&lt;/p&gt;" style="align=left;overflow=fill;html=1;dropTarget=0;" parent="wd0n0IJal98J9tUCrlXF-3" vertex="1">
          <mxGeometry x="120" y="60" width="90" height="70" as="geometry" />
        </mxCell>
        <mxCell id="wd0n0IJal98J9tUCrlXF-6" value="&lt;p style=&quot;margin:0px;margin-top:6px;text-align:center;&quot;&gt;&lt;/p&gt;&lt;p style=&quot;text-align: center; margin: 0px 0px 0px 8px;&quot;&gt;&lt;b&gt;&amp;lt;&amp;lt; artifact &amp;gt;&amp;gt;&lt;/b&gt;&lt;/p&gt;&lt;p style=&quot;text-align: center; margin: 0px 0px 0px 8px;&quot;&gt;&lt;b&gt;&lt;br&gt;&lt;/b&gt;&lt;/p&gt;&lt;p style=&quot;text-align: center; margin: 0px 0px 0px 8px;&quot;&gt;Styles&lt;/p&gt;" style="align=left;overflow=fill;html=1;dropTarget=0;" parent="1" vertex="1">
          <mxGeometry x="80" y="420" width="90" height="70" as="geometry" />
        </mxCell>
        <mxCell id="wd0n0IJal98J9tUCrlXF-7" value="&lt;div&gt;&amp;lt;&amp;lt;device&amp;gt;&amp;gt;&lt;/div&gt;&lt;div&gt;&lt;b&gt;&lt;font style=&quot;font-size: 20px;&quot;&gt;API Server&lt;/font&gt;&lt;/b&gt;&lt;/div&gt;" style="verticalAlign=top;align=center;spacingTop=8;spacingLeft=2;spacingRight=12;shape=cube;size=10;direction=south;fontStyle=4;html=1;" parent="1" vertex="1">
          <mxGeometry x="470" y="447" width="290" height="310" as="geometry" />
        </mxCell>
        <mxCell id="wd0n0IJal98J9tUCrlXF-8" value="&lt;div&gt;&amp;lt;&amp;lt;device&amp;gt;&amp;gt;&lt;/div&gt;&lt;div&gt;&lt;span style=&quot;font-size: 20px;&quot;&gt;&lt;b&gt;External Microservices&lt;/b&gt;&lt;/span&gt;&lt;/div&gt;" style="verticalAlign=top;align=center;spacingTop=8;spacingLeft=2;spacingRight=12;shape=cube;size=10;direction=south;fontStyle=4;html=1;" parent="1" vertex="1">
          <mxGeometry x="870" y="685" width="300" height="300" as="geometry" />
        </mxCell>
        <mxCell id="wd0n0IJal98J9tUCrlXF-9" style="edgeStyle=orthogonalEdgeStyle;rounded=0;orthogonalLoop=1;jettySize=auto;html=1;startArrow=box;startFill=0;endArrow=oval;endFill=0;endSize=12;sourcePerimeterSpacing=20;targetPerimeterSpacing=20;exitX=-0.001;exitY=0.459;exitDx=0;exitDy=0;exitPerimeter=0;" parent="1" source="wd0n0IJal98J9tUCrlXF-10" edge="1">
          <mxGeometry relative="1" as="geometry">
            <mxPoint x="820" y="567" as="targetPoint" />
            <Array as="points">
              <mxPoint x="850" y="787" />
              <mxPoint x="850" y="567" />
            </Array>
            <mxPoint x="920" y="787" as="sourcePoint" />
          </mxGeometry>
        </mxCell>
        <mxCell id="wd0n0IJal98J9tUCrlXF-10" value="&lt;p style=&quot;margin: 6px 0px 0px; font-size: 13px;&quot;&gt;&lt;span style=&quot;font-size: 13px;&quot;&gt;&lt;font style=&quot;font-size: 13px;&quot;&gt;&amp;lt;&amp;lt; component &amp;gt;&amp;gt;&lt;/font&gt;&lt;/span&gt;&lt;/p&gt;&lt;hr style=&quot;font-size: 13px;&quot;&gt;&lt;p style=&quot;margin: 0px 0px 0px 8px; font-size: 13px;&quot;&gt;&lt;b&gt;Coin Information Service&lt;/b&gt;&lt;/p&gt;" style="align=center;overflow=fill;html=1;dropTarget=0;fontStyle=0;fontSize=13;" parent="1" vertex="1">
          <mxGeometry x="920" y="750" width="200" height="80" as="geometry" />
        </mxCell>
        <mxCell id="wd0n0IJal98J9tUCrlXF-11" value="" style="shape=component;jettyWidth=8;jettyHeight=4;" parent="wd0n0IJal98J9tUCrlXF-10" vertex="1">
          <mxGeometry x="1" width="20" height="20" relative="1" as="geometry">
            <mxPoint x="-24" y="4" as="offset" />
          </mxGeometry>
        </mxCell>
        <mxCell id="wd0n0IJal98J9tUCrlXF-12" style="edgeStyle=orthogonalEdgeStyle;rounded=0;orthogonalLoop=1;jettySize=auto;html=1;startArrow=box;startFill=0;endArrow=oval;endFill=0;endSize=12;sourcePerimeterSpacing=20;targetPerimeterSpacing=20;exitX=0;exitY=0.5;exitDx=0;exitDy=0;" parent="1" source="wd0n0IJal98J9tUCrlXF-13" edge="1">
          <mxGeometry relative="1" as="geometry">
            <mxPoint x="820" y="600" as="targetPoint" />
          </mxGeometry>
        </mxCell>
        <mxCell id="wd0n0IJal98J9tUCrlXF-13" value="&lt;p style=&quot;margin: 6px 0px 0px; font-size: 13px;&quot;&gt;&lt;span style=&quot;font-size: 13px;&quot;&gt;&lt;font style=&quot;font-size: 13px;&quot;&gt;&amp;lt;&amp;lt; component &amp;gt;&amp;gt;&lt;/font&gt;&lt;/span&gt;&lt;/p&gt;&lt;hr style=&quot;font-size: 13px;&quot;&gt;&lt;p style=&quot;margin: 0px 0px 0px 8px; font-size: 13px;&quot;&gt;&lt;b&gt;News Information Service&lt;/b&gt;&lt;/p&gt;" style="align=center;overflow=fill;html=1;dropTarget=0;fontStyle=0;fontSize=13;" parent="1" vertex="1">
          <mxGeometry x="920" y="850" width="200" height="80" as="geometry" />
        </mxCell>
        <mxCell id="wd0n0IJal98J9tUCrlXF-14" value="" style="shape=component;jettyWidth=8;jettyHeight=4;" parent="wd0n0IJal98J9tUCrlXF-13" vertex="1">
          <mxGeometry x="1" width="20" height="20" relative="1" as="geometry">
            <mxPoint x="-24" y="4" as="offset" />
          </mxGeometry>
        </mxCell>
        <mxCell id="wd0n0IJal98J9tUCrlXF-15" value="&lt;div&gt;&amp;lt;&amp;lt;device&amp;gt;&amp;gt;&lt;/div&gt;&lt;div&gt;&lt;span style=&quot;font-size: 20px;&quot;&gt;&lt;b&gt;Internal Microservices&lt;/b&gt;&lt;/span&gt;&lt;/div&gt;" style="verticalAlign=top;align=center;spacingTop=8;spacingLeft=2;spacingRight=12;shape=cube;size=10;direction=south;fontStyle=4;html=1;" parent="1" vertex="1">
          <mxGeometry x="870" y="240" width="280" height="368.5" as="geometry" />
        </mxCell>
        <mxCell id="wd0n0IJal98J9tUCrlXF-16" style="edgeStyle=orthogonalEdgeStyle;rounded=0;orthogonalLoop=1;jettySize=auto;html=1;endArrow=oval;endFill=0;targetPerimeterSpacing=20;sourcePerimeterSpacing=20;endSize=12;exitX=-0.003;exitY=0.441;exitDx=0;exitDy=0;startArrow=box;startFill=0;exitPerimeter=0;" parent="1" source="wd0n0IJal98J9tUCrlXF-17" edge="1">
          <mxGeometry relative="1" as="geometry">
            <mxPoint x="790" y="677" as="targetPoint" />
            <mxPoint x="890" y="352" as="sourcePoint" />
            <Array as="points">
              <mxPoint x="790" y="350" />
            </Array>
          </mxGeometry>
        </mxCell>
        <mxCell id="wd0n0IJal98J9tUCrlXF-17" value="&lt;p style=&quot;margin: 6px 0px 0px; text-align: center; font-size: 11px;&quot;&gt;&lt;b style=&quot;&quot;&gt;&lt;font style=&quot;font-size: 11px;&quot;&gt;&amp;lt;&amp;lt; component &amp;gt;&amp;gt;&lt;/font&gt;&lt;/b&gt;&lt;/p&gt;&lt;hr style=&quot;font-size: 11px;&quot;&gt;&lt;p style=&quot;text-align: center; margin: 0px 0px 0px 8px;&quot;&gt;&lt;b&gt;User Information Service&lt;/b&gt;&lt;/p&gt;" style="align=left;overflow=fill;html=1;dropTarget=0;" parent="1" vertex="1">
          <mxGeometry x="900" y="315" width="200" height="80" as="geometry" />
        </mxCell>
        <mxCell id="wd0n0IJal98J9tUCrlXF-18" value="" style="shape=component;jettyWidth=8;jettyHeight=4;" parent="wd0n0IJal98J9tUCrlXF-17" vertex="1">
          <mxGeometry x="1" width="20" height="20" relative="1" as="geometry">
            <mxPoint x="-24" y="4" as="offset" />
          </mxGeometry>
        </mxCell>
        <mxCell id="E2cIgHscmPIjhdGu8iYm-8" style="edgeStyle=orthogonalEdgeStyle;rounded=0;orthogonalLoop=1;jettySize=auto;html=1;startArrow=box;startFill=0;endArrow=oval;endFill=0;endSize=12;sourcePerimeterSpacing=20;targetPerimeterSpacing=20;exitX=0;exitY=0.512;exitDx=0;exitDy=0;exitPerimeter=0;" parent="1" source="wd0n0IJal98J9tUCrlXF-19" edge="1">
          <mxGeometry relative="1" as="geometry">
            <mxPoint x="831" y="446" as="targetPoint" />
            <mxPoint x="901" y="446.0000000000001" as="sourcePoint" />
            <Array as="points">
              <mxPoint x="831" y="446" />
            </Array>
          </mxGeometry>
        </mxCell>
        <mxCell id="wd0n0IJal98J9tUCrlXF-19" value="&lt;p style=&quot;margin: 6px 0px 0px; text-align: center; font-size: 11px;&quot;&gt;&lt;b style=&quot;&quot;&gt;&lt;font style=&quot;font-size: 11px;&quot;&gt;&amp;lt;&amp;lt; component &amp;gt;&amp;gt;&lt;/font&gt;&lt;/b&gt;&lt;/p&gt;&lt;hr style=&quot;font-size: 11px;&quot;&gt;&lt;p style=&quot;text-align: center; margin: 0px 0px 0px 8px;&quot;&gt;&lt;b&gt;Notifications Service&lt;/b&gt;&lt;/p&gt;" style="align=left;overflow=fill;html=1;dropTarget=0;" parent="1" vertex="1">
          <mxGeometry x="900" y="405" width="200" height="80" as="geometry" />
        </mxCell>
        <mxCell id="wd0n0IJal98J9tUCrlXF-20" value="" style="shape=component;jettyWidth=8;jettyHeight=4;" parent="wd0n0IJal98J9tUCrlXF-19" vertex="1">
          <mxGeometry x="1" width="20" height="20" relative="1" as="geometry">
            <mxPoint x="-24" y="4" as="offset" />
          </mxGeometry>
        </mxCell>
        <mxCell id="wd0n0IJal98J9tUCrlXF-21" style="edgeStyle=orthogonalEdgeStyle;rounded=0;orthogonalLoop=1;jettySize=auto;html=1;endArrow=halfCircle;endFill=0;startArrow=box;startFill=0;exitX=1;exitY=0.5;exitDx=0;exitDy=0;" parent="1" source="wd0n0IJal98J9tUCrlXF-23" edge="1">
          <mxGeometry relative="1" as="geometry">
            <mxPoint x="790" y="677" as="targetPoint" />
            <mxPoint x="690" y="677" as="sourcePoint" />
          </mxGeometry>
        </mxCell>
        <mxCell id="wd0n0IJal98J9tUCrlXF-22" style="edgeStyle=orthogonalEdgeStyle;rounded=0;orthogonalLoop=1;jettySize=auto;html=1;startArrow=box;startFill=0;endArrow=oval;endFill=0;endSize=12;sourcePerimeterSpacing=20;targetPerimeterSpacing=20;exitX=0;exitY=0.5;exitDx=0;exitDy=0;" parent="1" source="wd0n0IJal98J9tUCrlXF-23" edge="1">
          <mxGeometry relative="1" as="geometry">
            <mxPoint x="390" y="490" as="targetPoint" />
          </mxGeometry>
        </mxCell>
        <mxCell id="wd0n0IJal98J9tUCrlXF-23" value="&lt;p style=&quot;margin: 6px 0px 0px; font-size: 13px;&quot;&gt;&lt;span style=&quot;font-size: 13px;&quot;&gt;&lt;font style=&quot;font-size: 13px;&quot;&gt;&amp;lt;&amp;lt; component &amp;gt;&amp;gt;&lt;/font&gt;&lt;/span&gt;&lt;/p&gt;&lt;hr style=&quot;font-size: 13px;&quot;&gt;&lt;p style=&quot;margin: 0px 0px 0px 8px; font-size: 13px;&quot;&gt;&lt;b&gt;Authentication&lt;/b&gt;&lt;/p&gt;" style="align=center;overflow=fill;html=1;dropTarget=0;fontStyle=0;fontSize=13;" parent="1" vertex="1">
          <mxGeometry x="500" y="637" width="200" height="80" as="geometry" />
        </mxCell>
        <mxCell id="wd0n0IJal98J9tUCrlXF-24" value="" style="shape=component;jettyWidth=8;jettyHeight=4;" parent="wd0n0IJal98J9tUCrlXF-23" vertex="1">
          <mxGeometry x="1" width="20" height="20" relative="1" as="geometry">
            <mxPoint x="-24" y="4" as="offset" />
          </mxGeometry>
        </mxCell>
        <mxCell id="wd0n0IJal98J9tUCrlXF-25" value="&lt;p style=&quot;margin: 6px 0px 0px; font-size: 13px;&quot;&gt;&lt;span style=&quot;font-size: 13px;&quot;&gt;&lt;font style=&quot;font-size: 13px;&quot;&gt;&amp;lt;&amp;lt; component &amp;gt;&amp;gt;&lt;/font&gt;&lt;/span&gt;&lt;/p&gt;&lt;hr style=&quot;font-size: 13px;&quot;&gt;&lt;p style=&quot;margin: 0px 0px 0px 8px; font-size: 13px;&quot;&gt;&lt;b&gt;Audit Log Services&lt;/b&gt;&lt;/p&gt;" style="align=center;overflow=fill;html=1;dropTarget=0;fontStyle=0;fontSize=13;" parent="1" vertex="1">
          <mxGeometry x="900" y="505" width="200" height="80" as="geometry" />
        </mxCell>
        <mxCell id="wd0n0IJal98J9tUCrlXF-26" value="" style="shape=component;jettyWidth=8;jettyHeight=4;" parent="wd0n0IJal98J9tUCrlXF-25" vertex="1">
          <mxGeometry x="1" width="20" height="20" relative="1" as="geometry">
            <mxPoint x="-24" y="4" as="offset" />
          </mxGeometry>
        </mxCell>
        <mxCell id="wd0n0IJal98J9tUCrlXF-27" style="edgeStyle=orthogonalEdgeStyle;rounded=0;orthogonalLoop=1;jettySize=auto;html=1;startArrow=box;startFill=0;endArrow=oval;endFill=0;endSize=12;sourcePerimeterSpacing=20;targetPerimeterSpacing=20;exitX=0.001;exitY=0.627;exitDx=0;exitDy=0;exitPerimeter=0;" parent="1" source="wd0n0IJal98J9tUCrlXF-30" edge="1">
          <mxGeometry relative="1" as="geometry">
            <mxPoint x="420.6" y="398" as="targetPoint" />
            <mxPoint x="499.99999999999966" y="577.96" as="sourcePoint" />
          </mxGeometry>
        </mxCell>
        <mxCell id="wd0n0IJal98J9tUCrlXF-28" style="edgeStyle=orthogonalEdgeStyle;rounded=0;orthogonalLoop=1;jettySize=auto;html=1;startArrow=box;startFill=0;endArrow=halfCircle;endFill=0;endSize=6;sourcePerimeterSpacing=20;targetPerimeterSpacing=20;exitX=1;exitY=0.5;exitDx=0;exitDy=0;" parent="1" source="wd0n0IJal98J9tUCrlXF-30" edge="1">
          <mxGeometry relative="1" as="geometry">
            <mxPoint x="820" y="567" as="targetPoint" />
          </mxGeometry>
        </mxCell>
        <mxCell id="wd0n0IJal98J9tUCrlXF-29" style="edgeStyle=orthogonalEdgeStyle;rounded=0;orthogonalLoop=1;jettySize=auto;html=1;startArrow=box;startFill=0;endArrow=halfCircle;endFill=0;endSize=6;sourcePerimeterSpacing=20;targetPerimeterSpacing=20;exitX=0.999;exitY=0.909;exitDx=0;exitDy=0;exitPerimeter=0;" parent="1" source="wd0n0IJal98J9tUCrlXF-30" edge="1">
          <mxGeometry relative="1" as="geometry">
            <mxPoint x="820" y="600" as="targetPoint" />
            <mxPoint x="700" y="600" as="sourcePoint" />
            <Array as="points" />
          </mxGeometry>
        </mxCell>
        <mxCell id="E2cIgHscmPIjhdGu8iYm-4" style="edgeStyle=orthogonalEdgeStyle;rounded=0;orthogonalLoop=1;jettySize=auto;html=1;startArrow=box;startFill=0;endArrow=halfCircle;endFill=0;endSize=6;sourcePerimeterSpacing=20;targetPerimeterSpacing=20;exitX=1.002;exitY=0.075;exitDx=0;exitDy=0;exitPerimeter=0;" parent="1" source="wd0n0IJal98J9tUCrlXF-30" edge="1">
          <mxGeometry relative="1" as="geometry">
            <mxPoint x="830" y="446" as="targetPoint" />
            <Array as="points">
              <mxPoint x="810" y="533" />
              <mxPoint x="810" y="446" />
            </Array>
            <mxPoint x="699.9999999999999" y="533" as="sourcePoint" />
          </mxGeometry>
        </mxCell>
        <mxCell id="wd0n0IJal98J9tUCrlXF-30" value="&lt;p style=&quot;margin: 6px 0px 0px; font-size: 13px;&quot;&gt;&lt;span style=&quot;font-size: 13px;&quot;&gt;&lt;font style=&quot;font-size: 13px;&quot;&gt;&amp;lt;&amp;lt; component &amp;gt;&amp;gt;&lt;/font&gt;&lt;/span&gt;&lt;/p&gt;&lt;hr style=&quot;font-size: 13px;&quot;&gt;&lt;p style=&quot;margin: 0px 0px 0px 8px; font-size: 13px;&quot;&gt;&lt;b&gt;API Gateway Service&lt;/b&gt;&lt;/p&gt;" style="align=center;overflow=fill;html=1;dropTarget=0;fontStyle=0;fontSize=13;" parent="1" vertex="1">
          <mxGeometry x="500" y="527" width="200" height="80" as="geometry" />
        </mxCell>
        <mxCell id="wd0n0IJal98J9tUCrlXF-31" value="" style="shape=component;jettyWidth=8;jettyHeight=4;" parent="wd0n0IJal98J9tUCrlXF-30" vertex="1">
          <mxGeometry x="1" width="20" height="20" relative="1" as="geometry">
            <mxPoint x="-24" y="4" as="offset" />
          </mxGeometry>
        </mxCell>
        <mxCell id="wd0n0IJal98J9tUCrlXF-32" value="&lt;div&gt;&amp;lt;&amp;lt;device&amp;gt;&amp;gt;&lt;/div&gt;&lt;div&gt;&lt;span style=&quot;font-size: 20px;&quot;&gt;&lt;b&gt;Portal Data&lt;/b&gt;&lt;/span&gt;&lt;/div&gt;" style="verticalAlign=top;align=center;spacingTop=8;spacingLeft=2;spacingRight=12;shape=cube;size=10;direction=south;fontStyle=4;html=1;" parent="1" vertex="1">
          <mxGeometry x="1330" y="240" width="280" height="207" as="geometry" />
        </mxCell>
        <mxCell id="wd0n0IJal98J9tUCrlXF-33" value="&lt;p style=&quot;margin: 6px 0px 0px; text-align: center; font-size: 11px;&quot;&gt;&lt;b style=&quot;&quot;&gt;&lt;font style=&quot;font-size: 11px;&quot;&gt;&amp;lt;&amp;lt; component &amp;gt;&amp;gt;&lt;/font&gt;&lt;/b&gt;&lt;/p&gt;&lt;hr style=&quot;font-size: 11px;&quot;&gt;&lt;p style=&quot;text-align: center; margin: 0px 0px 0px 8px;&quot;&gt;&lt;b&gt;Portal Database&lt;/b&gt;&lt;/p&gt;" style="align=left;overflow=fill;html=1;dropTarget=0;" parent="1" vertex="1">
          <mxGeometry x="1360" y="327" width="200" height="80" as="geometry" />
        </mxCell>
        <mxCell id="wd0n0IJal98J9tUCrlXF-34" value="" style="shape=component;jettyWidth=8;jettyHeight=4;" parent="wd0n0IJal98J9tUCrlXF-33" vertex="1">
          <mxGeometry x="1" width="20" height="20" relative="1" as="geometry">
            <mxPoint x="-24" y="4" as="offset" />
          </mxGeometry>
        </mxCell>
        <mxCell id="wd0n0IJal98J9tUCrlXF-35" value="" style="endArrow=classic;html=1;rounded=0;fontSize=11;exitX=1;exitY=0.5;exitDx=0;exitDy=0;entryX=0;entryY=0;entryDx=108.49999999999999;entryDy=280;entryPerimeter=0;dashed=1;strokeWidth=2;" parent="1" source="wd0n0IJal98J9tUCrlXF-17" target="wd0n0IJal98J9tUCrlXF-32" edge="1">
          <mxGeometry width="50" height="50" relative="1" as="geometry">
            <mxPoint x="1270" y="650" as="sourcePoint" />
            <mxPoint x="1320" y="600" as="targetPoint" />
          </mxGeometry>
        </mxCell>
        <mxCell id="wd0n0IJal98J9tUCrlXF-36" value="" style="endArrow=classic;html=1;rounded=0;fontSize=11;exitX=1;exitY=0.5;exitDx=0;exitDy=0;dashed=1;strokeWidth=2;entryX=0.573;entryY=0.996;entryDx=0;entryDy=0;entryPerimeter=0;" parent="1" source="wd0n0IJal98J9tUCrlXF-19" target="wd0n0IJal98J9tUCrlXF-32" edge="1">
          <mxGeometry width="50" height="50" relative="1" as="geometry">
            <mxPoint x="1110" y="365" as="sourcePoint" />
            <mxPoint x="1380" y="419" as="targetPoint" />
          </mxGeometry>
        </mxCell>
        <mxCell id="wd0n0IJal98J9tUCrlXF-37" value="" style="endArrow=classic;html=1;rounded=0;fontSize=11;exitX=1;exitY=0.5;exitDx=0;exitDy=0;dashed=1;strokeWidth=2;entryX=0.633;entryY=1.004;entryDx=0;entryDy=0;entryPerimeter=0;" parent="1" source="wd0n0IJal98J9tUCrlXF-25" target="wd0n0IJal98J9tUCrlXF-32" edge="1">
          <mxGeometry width="50" height="50" relative="1" as="geometry">
            <mxPoint x="1110" y="455" as="sourcePoint" />
            <mxPoint x="1391.12" y="428.6109999999999" as="targetPoint" />
          </mxGeometry>
        </mxCell>
        <mxCell id="wd0n0IJal98J9tUCrlXF-38" style="edgeStyle=orthogonalEdgeStyle;rounded=0;orthogonalLoop=1;jettySize=auto;html=1;startArrow=box;startFill=0;endArrow=halfCircle;endFill=0;endSize=6;sourcePerimeterSpacing=20;targetPerimeterSpacing=20;exitX=1;exitY=0.663;exitDx=0;exitDy=0;exitPerimeter=0;" parent="1" source="wd0n0IJal98J9tUCrlXF-3" edge="1">
          <mxGeometry relative="1" as="geometry">
            <mxPoint x="390" y="490" as="targetPoint" />
            <mxPoint x="290" y="460" as="sourcePoint" />
            <Array as="points">
              <mxPoint x="390" y="459" />
            </Array>
          </mxGeometry>
        </mxCell>
        <mxCell id="wd0n0IJal98J9tUCrlXF-39" style="edgeStyle=orthogonalEdgeStyle;rounded=0;orthogonalLoop=1;jettySize=auto;html=1;startArrow=box;startFill=0;endArrow=halfCircle;endFill=0;endSize=6;sourcePerimeterSpacing=20;targetPerimeterSpacing=20;exitX=1;exitY=0.25;exitDx=0;exitDy=0;" parent="1" source="wd0n0IJal98J9tUCrlXF-3" edge="1">
          <mxGeometry relative="1" as="geometry">
            <mxPoint x="420" y="398" as="targetPoint" />
            <mxPoint x="410" y="329.5" as="sourcePoint" />
          </mxGeometry>
        </mxCell>
        <mxCell id="Gm-UOmzJJeNnjo0vofYR-2" style="edgeStyle=orthogonalEdgeStyle;rounded=0;orthogonalLoop=1;jettySize=auto;html=1;startArrow=box;startFill=0;endArrow=halfCircle;endFill=0;endSize=6;sourcePerimeterSpacing=20;targetPerimeterSpacing=20;exitX=1;exitY=0.227;exitDx=0;exitDy=0;exitPerimeter=0;" parent="1" source="wd0n0IJal98J9tUCrlXF-30" edge="1">
          <mxGeometry relative="1" as="geometry">
            <mxPoint x="820" y="544.83" as="targetPoint" />
            <mxPoint x="700" y="544.83" as="sourcePoint" />
          </mxGeometry>
        </mxCell>
        <mxCell id="Gm-UOmzJJeNnjo0vofYR-3" style="edgeStyle=orthogonalEdgeStyle;rounded=0;orthogonalLoop=1;jettySize=auto;html=1;startArrow=box;startFill=0;endArrow=oval;endFill=0;endSize=12;sourcePerimeterSpacing=20;targetPerimeterSpacing=20;exitX=-0.002;exitY=0.496;exitDx=0;exitDy=0;exitPerimeter=0;" parent="1" source="wd0n0IJal98J9tUCrlXF-25" edge="1">
          <mxGeometry relative="1" as="geometry">
            <mxPoint x="820" y="544.83" as="targetPoint" />
            <mxPoint x="900" y="544.83" as="sourcePoint" />
          </mxGeometry>
        </mxCell>
        <mxCell id="WTlKdD7hvuU_o3S9ohNi-1" value="" style="endArrow=classic;html=1;rounded=0;fontSize=11;exitX=1;exitY=0.5;exitDx=0;exitDy=0;dashed=1;strokeWidth=2;entryX=0.744;entryY=0.996;entryDx=0;entryDy=0;entryPerimeter=0;" parent="1" source="wd0n0IJal98J9tUCrlXF-10" target="wd0n0IJal98J9tUCrlXF-32" edge="1">
          <mxGeometry width="50" height="50" relative="1" as="geometry">
            <mxPoint x="1110" y="555" as="sourcePoint" />
            <mxPoint x="1338.88" y="381.03099999999995" as="targetPoint" />
          </mxGeometry>
        </mxCell>
      </root>
    </mxGraphModel>
  </diagram>
  <diagram id="sGTwtMbzMhG8YggDor9M" name="Ideia inicial">
    <mxGraphModel dx="4780" dy="2607" grid="1" gridSize="10" guides="1" tooltips="1" connect="1" arrows="1" fold="1" page="1" pageScale="1" pageWidth="827" pageHeight="1169" math="0" shadow="0">
      <root>
        <mxCell id="0" />
        <mxCell id="1" parent="0" />
        <mxCell id="pbectdiW-8Ejznnw09L4-1" value="&lt;div&gt;&amp;lt;&amp;lt;device&amp;gt;&amp;gt;&lt;/div&gt;&lt;div&gt;&lt;b&gt;&lt;font style=&quot;font-size: 20px;&quot;&gt;Web&lt;/font&gt;&lt;/b&gt;&lt;/div&gt;" style="verticalAlign=top;align=center;spacingTop=8;spacingLeft=2;spacingRight=12;shape=cube;size=10;direction=south;fontStyle=4;html=1;" parent="1" vertex="1">
          <mxGeometry x="150" y="130" width="340" height="300" as="geometry" />
        </mxCell>
        <mxCell id="pbectdiW-8Ejznnw09L4-3" value="Web Browser" style="verticalAlign=top;align=left;spacingTop=8;spacingLeft=2;spacingRight=12;shape=cube;size=10;direction=south;fontStyle=4;html=1;" parent="1" vertex="1">
          <mxGeometry x="170" y="200" width="283.03" height="210" as="geometry" />
        </mxCell>
        <mxCell id="nYYjxuZt-Mi0k5L1FoQl-1" value="&lt;p style=&quot;margin:0px;margin-top:6px;text-align:center;&quot;&gt;&lt;b&gt;&amp;lt;&amp;lt; component &amp;gt;&amp;gt;&lt;/b&gt;&lt;/p&gt;&lt;hr&gt;&lt;p style=&quot;margin:0px;margin-left:8px;&quot;&gt;Portal Client Module&lt;/p&gt;" style="align=left;overflow=fill;html=1;dropTarget=0;" parent="1" vertex="1">
          <mxGeometry x="200" y="240" width="220" height="150" as="geometry" />
        </mxCell>
        <mxCell id="nYYjxuZt-Mi0k5L1FoQl-2" value="" style="shape=component;jettyWidth=8;jettyHeight=4;" parent="nYYjxuZt-Mi0k5L1FoQl-1" vertex="1">
          <mxGeometry x="1" width="20" height="20" relative="1" as="geometry">
            <mxPoint x="-24" y="4" as="offset" />
          </mxGeometry>
        </mxCell>
        <mxCell id="hxlGtg80VeHReZjobYOY-4" value="&lt;p style=&quot;margin:0px;margin-top:6px;text-align:center;&quot;&gt;&lt;/p&gt;&lt;p style=&quot;text-align: center; margin: 0px 0px 0px 8px;&quot;&gt;&lt;b&gt;&amp;lt;&amp;lt; artifact &amp;gt;&amp;gt;&lt;/b&gt;&lt;/p&gt;&lt;p style=&quot;text-align: center; margin: 0px 0px 0px 8px;&quot;&gt;&lt;b&gt;&lt;br&gt;&lt;/b&gt;&lt;/p&gt;&lt;p style=&quot;text-align: center; margin: 0px 0px 0px 8px;&quot;&gt;Scripts&lt;/p&gt;" style="align=left;overflow=fill;html=1;dropTarget=0;" parent="nYYjxuZt-Mi0k5L1FoQl-1" vertex="1">
          <mxGeometry x="120" y="60" width="90" height="70" as="geometry" />
        </mxCell>
        <mxCell id="hxlGtg80VeHReZjobYOY-1" value="&lt;p style=&quot;margin:0px;margin-top:6px;text-align:center;&quot;&gt;&lt;/p&gt;&lt;p style=&quot;text-align: center; margin: 0px 0px 0px 8px;&quot;&gt;&lt;b&gt;&amp;lt;&amp;lt; artifact &amp;gt;&amp;gt;&lt;/b&gt;&lt;/p&gt;&lt;p style=&quot;text-align: center; margin: 0px 0px 0px 8px;&quot;&gt;&lt;b&gt;&lt;br&gt;&lt;/b&gt;&lt;/p&gt;&lt;p style=&quot;text-align: center; margin: 0px 0px 0px 8px;&quot;&gt;Styles&lt;/p&gt;" style="align=left;overflow=fill;html=1;dropTarget=0;" parent="1" vertex="1">
          <mxGeometry x="210" y="300" width="90" height="70" as="geometry" />
        </mxCell>
        <mxCell id="hxlGtg80VeHReZjobYOY-5" value="&lt;div&gt;&amp;lt;&amp;lt;device&amp;gt;&amp;gt;&lt;/div&gt;&lt;div&gt;&lt;b&gt;&lt;font style=&quot;font-size: 20px;&quot;&gt;API Server&lt;/font&gt;&lt;/b&gt;&lt;/div&gt;" style="verticalAlign=top;align=center;spacingTop=8;spacingLeft=2;spacingRight=12;shape=cube;size=10;direction=south;fontStyle=4;html=1;" parent="1" vertex="1">
          <mxGeometry x="600" y="327" width="290" height="310" as="geometry" />
        </mxCell>
        <mxCell id="hxlGtg80VeHReZjobYOY-20" value="&lt;div&gt;&amp;lt;&amp;lt;device&amp;gt;&amp;gt;&lt;/div&gt;&lt;div&gt;&lt;span style=&quot;font-size: 20px;&quot;&gt;&lt;b&gt;External Microservices&lt;/b&gt;&lt;/span&gt;&lt;/div&gt;" style="verticalAlign=top;align=center;spacingTop=8;spacingLeft=2;spacingRight=12;shape=cube;size=10;direction=south;fontStyle=4;html=1;" parent="1" vertex="1">
          <mxGeometry x="1000" y="565" width="300" height="300" as="geometry" />
        </mxCell>
        <mxCell id="rM9xooDROUFy-dyysIF4-3" style="edgeStyle=orthogonalEdgeStyle;rounded=0;orthogonalLoop=1;jettySize=auto;html=1;startArrow=box;startFill=0;endArrow=oval;endFill=0;endSize=12;sourcePerimeterSpacing=20;targetPerimeterSpacing=20;exitX=0;exitY=0.5;exitDx=0;exitDy=0;" edge="1" parent="1" source="hxlGtg80VeHReZjobYOY-24">
          <mxGeometry relative="1" as="geometry">
            <mxPoint x="950" y="450" as="targetPoint" />
            <Array as="points">
              <mxPoint x="980" y="670" />
              <mxPoint x="980" y="450" />
            </Array>
          </mxGeometry>
        </mxCell>
        <mxCell id="hxlGtg80VeHReZjobYOY-24" value="&lt;p style=&quot;margin: 6px 0px 0px; font-size: 13px;&quot;&gt;&lt;span style=&quot;font-size: 13px;&quot;&gt;&lt;font style=&quot;font-size: 13px;&quot;&gt;&amp;lt;&amp;lt; component &amp;gt;&amp;gt;&lt;/font&gt;&lt;/span&gt;&lt;/p&gt;&lt;hr style=&quot;font-size: 13px;&quot;&gt;&lt;p style=&quot;margin: 0px 0px 0px 8px; font-size: 13px;&quot;&gt;&lt;b&gt;Coin Information Service&lt;/b&gt;&lt;/p&gt;" style="align=center;overflow=fill;html=1;dropTarget=0;fontStyle=0;fontSize=13;" parent="1" vertex="1">
          <mxGeometry x="1050" y="630" width="200" height="80" as="geometry" />
        </mxCell>
        <mxCell id="hxlGtg80VeHReZjobYOY-25" value="" style="shape=component;jettyWidth=8;jettyHeight=4;" parent="hxlGtg80VeHReZjobYOY-24" vertex="1">
          <mxGeometry x="1" width="20" height="20" relative="1" as="geometry">
            <mxPoint x="-24" y="4" as="offset" />
          </mxGeometry>
        </mxCell>
        <mxCell id="rM9xooDROUFy-dyysIF4-4" style="edgeStyle=orthogonalEdgeStyle;rounded=0;orthogonalLoop=1;jettySize=auto;html=1;startArrow=box;startFill=0;endArrow=oval;endFill=0;endSize=12;sourcePerimeterSpacing=20;targetPerimeterSpacing=20;exitX=0;exitY=0.5;exitDx=0;exitDy=0;" edge="1" parent="1" source="hxlGtg80VeHReZjobYOY-28">
          <mxGeometry relative="1" as="geometry">
            <mxPoint x="950" y="480" as="targetPoint" />
          </mxGeometry>
        </mxCell>
        <mxCell id="hxlGtg80VeHReZjobYOY-28" value="&lt;p style=&quot;margin: 6px 0px 0px; font-size: 13px;&quot;&gt;&lt;span style=&quot;font-size: 13px;&quot;&gt;&lt;font style=&quot;font-size: 13px;&quot;&gt;&amp;lt;&amp;lt; component &amp;gt;&amp;gt;&lt;/font&gt;&lt;/span&gt;&lt;/p&gt;&lt;hr style=&quot;font-size: 13px;&quot;&gt;&lt;p style=&quot;margin: 0px 0px 0px 8px; font-size: 13px;&quot;&gt;&lt;b&gt;News Information Service&lt;/b&gt;&lt;/p&gt;" style="align=center;overflow=fill;html=1;dropTarget=0;fontStyle=0;fontSize=13;" parent="1" vertex="1">
          <mxGeometry x="1050" y="730" width="200" height="80" as="geometry" />
        </mxCell>
        <mxCell id="hxlGtg80VeHReZjobYOY-29" value="" style="shape=component;jettyWidth=8;jettyHeight=4;" parent="hxlGtg80VeHReZjobYOY-28" vertex="1">
          <mxGeometry x="1" width="20" height="20" relative="1" as="geometry">
            <mxPoint x="-24" y="4" as="offset" />
          </mxGeometry>
        </mxCell>
        <mxCell id="hxlGtg80VeHReZjobYOY-44" value="&lt;div&gt;&amp;lt;&amp;lt;device&amp;gt;&amp;gt;&lt;/div&gt;&lt;div&gt;&lt;span style=&quot;font-size: 20px;&quot;&gt;&lt;b&gt;Internal Microservices&lt;/b&gt;&lt;/span&gt;&lt;/div&gt;" style="verticalAlign=top;align=center;spacingTop=8;spacingLeft=2;spacingRight=12;shape=cube;size=10;direction=south;fontStyle=4;html=1;" parent="1" vertex="1">
          <mxGeometry x="1000" y="120" width="280" height="368.5" as="geometry" />
        </mxCell>
        <mxCell id="rM9xooDROUFy-dyysIF4-1" style="edgeStyle=orthogonalEdgeStyle;rounded=0;orthogonalLoop=1;jettySize=auto;html=1;endArrow=oval;endFill=0;targetPerimeterSpacing=20;sourcePerimeterSpacing=20;endSize=12;exitX=0;exitY=0.5;exitDx=0;exitDy=0;startArrow=box;startFill=0;" edge="1" parent="1" source="hxlGtg80VeHReZjobYOY-47">
          <mxGeometry relative="1" as="geometry">
            <mxPoint x="930" y="560" as="targetPoint" />
          </mxGeometry>
        </mxCell>
        <mxCell id="hxlGtg80VeHReZjobYOY-47" value="&lt;p style=&quot;margin: 6px 0px 0px; text-align: center; font-size: 11px;&quot;&gt;&lt;b style=&quot;&quot;&gt;&lt;font style=&quot;font-size: 11px;&quot;&gt;&amp;lt;&amp;lt; component &amp;gt;&amp;gt;&lt;/font&gt;&lt;/b&gt;&lt;/p&gt;&lt;hr style=&quot;font-size: 11px;&quot;&gt;&lt;p style=&quot;text-align: center; margin: 0px 0px 0px 8px;&quot;&gt;&lt;b&gt;User Information Service&lt;/b&gt;&lt;/p&gt;" style="align=left;overflow=fill;html=1;dropTarget=0;" parent="1" vertex="1">
          <mxGeometry x="1030" y="195" width="200" height="80" as="geometry" />
        </mxCell>
        <mxCell id="hxlGtg80VeHReZjobYOY-48" value="" style="shape=component;jettyWidth=8;jettyHeight=4;" parent="hxlGtg80VeHReZjobYOY-47" vertex="1">
          <mxGeometry x="1" width="20" height="20" relative="1" as="geometry">
            <mxPoint x="-24" y="4" as="offset" />
          </mxGeometry>
        </mxCell>
        <mxCell id="hxlGtg80VeHReZjobYOY-50" value="&lt;p style=&quot;margin: 6px 0px 0px; text-align: center; font-size: 11px;&quot;&gt;&lt;b style=&quot;&quot;&gt;&lt;font style=&quot;font-size: 11px;&quot;&gt;&amp;lt;&amp;lt; component &amp;gt;&amp;gt;&lt;/font&gt;&lt;/b&gt;&lt;/p&gt;&lt;hr style=&quot;font-size: 11px;&quot;&gt;&lt;p style=&quot;text-align: center; margin: 0px 0px 0px 8px;&quot;&gt;&lt;b&gt;Notifications Service&lt;/b&gt;&lt;/p&gt;" style="align=left;overflow=fill;html=1;dropTarget=0;" parent="1" vertex="1">
          <mxGeometry x="1030" y="285" width="200" height="80" as="geometry" />
        </mxCell>
        <mxCell id="hxlGtg80VeHReZjobYOY-51" value="" style="shape=component;jettyWidth=8;jettyHeight=4;" parent="hxlGtg80VeHReZjobYOY-50" vertex="1">
          <mxGeometry x="1" width="20" height="20" relative="1" as="geometry">
            <mxPoint x="-24" y="4" as="offset" />
          </mxGeometry>
        </mxCell>
        <mxCell id="rM9xooDROUFy-dyysIF4-2" style="edgeStyle=orthogonalEdgeStyle;rounded=0;orthogonalLoop=1;jettySize=auto;html=1;endArrow=halfCircle;endFill=0;startArrow=box;startFill=0;" edge="1" parent="1" source="hxlGtg80VeHReZjobYOY-54">
          <mxGeometry relative="1" as="geometry">
            <mxPoint x="930" y="557" as="targetPoint" />
          </mxGeometry>
        </mxCell>
        <mxCell id="rM9xooDROUFy-dyysIF4-5" style="edgeStyle=orthogonalEdgeStyle;rounded=0;orthogonalLoop=1;jettySize=auto;html=1;startArrow=box;startFill=0;endArrow=oval;endFill=0;endSize=12;sourcePerimeterSpacing=20;targetPerimeterSpacing=20;exitX=0;exitY=0.5;exitDx=0;exitDy=0;" edge="1" parent="1" source="hxlGtg80VeHReZjobYOY-54">
          <mxGeometry relative="1" as="geometry">
            <mxPoint x="520" y="370" as="targetPoint" />
          </mxGeometry>
        </mxCell>
        <mxCell id="hxlGtg80VeHReZjobYOY-54" value="&lt;p style=&quot;margin: 6px 0px 0px; font-size: 13px;&quot;&gt;&lt;span style=&quot;font-size: 13px;&quot;&gt;&lt;font style=&quot;font-size: 13px;&quot;&gt;&amp;lt;&amp;lt; component &amp;gt;&amp;gt;&lt;/font&gt;&lt;/span&gt;&lt;/p&gt;&lt;hr style=&quot;font-size: 13px;&quot;&gt;&lt;p style=&quot;margin: 0px 0px 0px 8px; font-size: 13px;&quot;&gt;&lt;b&gt;Authentication&lt;/b&gt;&lt;/p&gt;" style="align=center;overflow=fill;html=1;dropTarget=0;fontStyle=0;fontSize=13;" parent="1" vertex="1">
          <mxGeometry x="630" y="517" width="200" height="80" as="geometry" />
        </mxCell>
        <mxCell id="hxlGtg80VeHReZjobYOY-55" value="" style="shape=component;jettyWidth=8;jettyHeight=4;" parent="hxlGtg80VeHReZjobYOY-54" vertex="1">
          <mxGeometry x="1" width="20" height="20" relative="1" as="geometry">
            <mxPoint x="-24" y="4" as="offset" />
          </mxGeometry>
        </mxCell>
        <mxCell id="ke9UfSYul0d9RagH4ZLe-11" value="&lt;p style=&quot;margin: 6px 0px 0px; font-size: 13px;&quot;&gt;&lt;span style=&quot;font-size: 13px;&quot;&gt;&lt;font style=&quot;font-size: 13px;&quot;&gt;&amp;lt;&amp;lt; component &amp;gt;&amp;gt;&lt;/font&gt;&lt;/span&gt;&lt;/p&gt;&lt;hr style=&quot;font-size: 13px;&quot;&gt;&lt;p style=&quot;margin: 0px 0px 0px 8px; font-size: 13px;&quot;&gt;&lt;b&gt;Audit Log Services&lt;/b&gt;&lt;/p&gt;" style="align=center;overflow=fill;html=1;dropTarget=0;fontStyle=0;fontSize=13;" parent="1" vertex="1">
          <mxGeometry x="1030" y="385" width="200" height="80" as="geometry" />
        </mxCell>
        <mxCell id="ke9UfSYul0d9RagH4ZLe-12" value="" style="shape=component;jettyWidth=8;jettyHeight=4;" parent="ke9UfSYul0d9RagH4ZLe-11" vertex="1">
          <mxGeometry x="1" width="20" height="20" relative="1" as="geometry">
            <mxPoint x="-24" y="4" as="offset" />
          </mxGeometry>
        </mxCell>
        <mxCell id="rM9xooDROUFy-dyysIF4-6" style="edgeStyle=orthogonalEdgeStyle;rounded=0;orthogonalLoop=1;jettySize=auto;html=1;startArrow=box;startFill=0;endArrow=oval;endFill=0;endSize=12;sourcePerimeterSpacing=20;targetPerimeterSpacing=20;exitX=-0.003;exitY=0.662;exitDx=0;exitDy=0;exitPerimeter=0;" edge="1" parent="1">
          <mxGeometry relative="1" as="geometry">
            <mxPoint x="550" y="280" as="targetPoint" />
            <mxPoint x="629.4000000000001" y="459.96000000000026" as="sourcePoint" />
          </mxGeometry>
        </mxCell>
        <mxCell id="rM9xooDROUFy-dyysIF4-9" style="edgeStyle=orthogonalEdgeStyle;rounded=0;orthogonalLoop=1;jettySize=auto;html=1;startArrow=box;startFill=0;endArrow=halfCircle;endFill=0;endSize=6;sourcePerimeterSpacing=20;targetPerimeterSpacing=20;exitX=1;exitY=0.5;exitDx=0;exitDy=0;" edge="1" parent="1" source="p3l2NKJmuj8cSq7E-Xql-3">
          <mxGeometry relative="1" as="geometry">
            <mxPoint x="950" y="447" as="targetPoint" />
          </mxGeometry>
        </mxCell>
        <mxCell id="rM9xooDROUFy-dyysIF4-10" style="edgeStyle=orthogonalEdgeStyle;rounded=0;orthogonalLoop=1;jettySize=auto;html=1;startArrow=box;startFill=0;endArrow=halfCircle;endFill=0;endSize=6;sourcePerimeterSpacing=20;targetPerimeterSpacing=20;exitX=1;exitY=0.75;exitDx=0;exitDy=0;" edge="1" parent="1" source="p3l2NKJmuj8cSq7E-Xql-3">
          <mxGeometry relative="1" as="geometry">
            <mxPoint x="950" y="480" as="targetPoint" />
          </mxGeometry>
        </mxCell>
        <mxCell id="p3l2NKJmuj8cSq7E-Xql-3" value="&lt;p style=&quot;margin: 6px 0px 0px; font-size: 13px;&quot;&gt;&lt;span style=&quot;font-size: 13px;&quot;&gt;&lt;font style=&quot;font-size: 13px;&quot;&gt;&amp;lt;&amp;lt; component &amp;gt;&amp;gt;&lt;/font&gt;&lt;/span&gt;&lt;/p&gt;&lt;hr style=&quot;font-size: 13px;&quot;&gt;&lt;p style=&quot;margin: 0px 0px 0px 8px; font-size: 13px;&quot;&gt;&lt;b&gt;API Gateway Service&lt;/b&gt;&lt;/p&gt;" style="align=center;overflow=fill;html=1;dropTarget=0;fontStyle=0;fontSize=13;" parent="1" vertex="1">
          <mxGeometry x="630" y="407" width="200" height="80" as="geometry" />
        </mxCell>
        <mxCell id="p3l2NKJmuj8cSq7E-Xql-4" value="" style="shape=component;jettyWidth=8;jettyHeight=4;" parent="p3l2NKJmuj8cSq7E-Xql-3" vertex="1">
          <mxGeometry x="1" width="20" height="20" relative="1" as="geometry">
            <mxPoint x="-24" y="4" as="offset" />
          </mxGeometry>
        </mxCell>
        <mxCell id="p3l2NKJmuj8cSq7E-Xql-7" value="" style="shape=image;verticalLabelPosition=bottom;labelBackgroundColor=default;verticalAlign=top;aspect=fixed;imageAspect=0;image=https://www.uml-diagrams.org/deployment-diagrams/deployment-diagram-overview-specification.png;" parent="1" vertex="1">
          <mxGeometry x="1980" y="865" width="1262.86" height="680" as="geometry" />
        </mxCell>
        <mxCell id="p3l2NKJmuj8cSq7E-Xql-8" value="&lt;div&gt;&amp;lt;&amp;lt;device&amp;gt;&amp;gt;&lt;/div&gt;&lt;div&gt;&lt;span style=&quot;font-size: 20px;&quot;&gt;&lt;b&gt;Portal Data&lt;/b&gt;&lt;/span&gt;&lt;/div&gt;" style="verticalAlign=top;align=center;spacingTop=8;spacingLeft=2;spacingRight=12;shape=cube;size=10;direction=south;fontStyle=4;html=1;" parent="1" vertex="1">
          <mxGeometry x="1460" y="120" width="280" height="207" as="geometry" />
        </mxCell>
        <mxCell id="hxlGtg80VeHReZjobYOY-45" value="&lt;p style=&quot;margin: 6px 0px 0px; text-align: center; font-size: 11px;&quot;&gt;&lt;b style=&quot;&quot;&gt;&lt;font style=&quot;font-size: 11px;&quot;&gt;&amp;lt;&amp;lt; component &amp;gt;&amp;gt;&lt;/font&gt;&lt;/b&gt;&lt;/p&gt;&lt;hr style=&quot;font-size: 11px;&quot;&gt;&lt;p style=&quot;text-align: center; margin: 0px 0px 0px 8px;&quot;&gt;&lt;b&gt;Portal Dabase&lt;/b&gt;&lt;/p&gt;" style="align=left;overflow=fill;html=1;dropTarget=0;" parent="1" vertex="1">
          <mxGeometry x="1490" y="207" width="200" height="80" as="geometry" />
        </mxCell>
        <mxCell id="hxlGtg80VeHReZjobYOY-46" value="" style="shape=component;jettyWidth=8;jettyHeight=4;" parent="hxlGtg80VeHReZjobYOY-45" vertex="1">
          <mxGeometry x="1" width="20" height="20" relative="1" as="geometry">
            <mxPoint x="-24" y="4" as="offset" />
          </mxGeometry>
        </mxCell>
        <mxCell id="p3l2NKJmuj8cSq7E-Xql-9" value="" style="shape=image;verticalLabelPosition=bottom;labelBackgroundColor=default;verticalAlign=top;aspect=fixed;imageAspect=0;image=https://upload.wikimedia.org/wikipedia/commons/thumb/b/b9/Deployment_Diagram.PNG/1200px-Deployment_Diagram.PNG;" parent="1" vertex="1">
          <mxGeometry x="2010" y="488.5" width="520" height="305" as="geometry" />
        </mxCell>
        <mxCell id="p3l2NKJmuj8cSq7E-Xql-10" value="" style="endArrow=classic;html=1;rounded=0;fontSize=11;exitX=1;exitY=0.5;exitDx=0;exitDy=0;entryX=0;entryY=0;entryDx=108.49999999999999;entryDy=280;entryPerimeter=0;dashed=1;strokeWidth=2;" parent="1" source="hxlGtg80VeHReZjobYOY-47" target="p3l2NKJmuj8cSq7E-Xql-8" edge="1">
          <mxGeometry width="50" height="50" relative="1" as="geometry">
            <mxPoint x="1400" y="530" as="sourcePoint" />
            <mxPoint x="1450" y="480" as="targetPoint" />
          </mxGeometry>
        </mxCell>
        <mxCell id="p3l2NKJmuj8cSq7E-Xql-11" value="" style="endArrow=classic;html=1;rounded=0;fontSize=11;exitX=1;exitY=0.5;exitDx=0;exitDy=0;dashed=1;strokeWidth=2;entryX=0.573;entryY=0.996;entryDx=0;entryDy=0;entryPerimeter=0;" parent="1" source="hxlGtg80VeHReZjobYOY-50" target="p3l2NKJmuj8cSq7E-Xql-8" edge="1">
          <mxGeometry width="50" height="50" relative="1" as="geometry">
            <mxPoint x="1240" y="245" as="sourcePoint" />
            <mxPoint x="1510" y="299" as="targetPoint" />
          </mxGeometry>
        </mxCell>
        <mxCell id="p3l2NKJmuj8cSq7E-Xql-13" value="" style="endArrow=classic;html=1;rounded=0;fontSize=11;exitX=1;exitY=0.5;exitDx=0;exitDy=0;dashed=1;strokeWidth=2;entryX=0.633;entryY=1.004;entryDx=0;entryDy=0;entryPerimeter=0;" parent="1" source="ke9UfSYul0d9RagH4ZLe-11" target="p3l2NKJmuj8cSq7E-Xql-8" edge="1">
          <mxGeometry width="50" height="50" relative="1" as="geometry">
            <mxPoint x="1240" y="335" as="sourcePoint" />
            <mxPoint x="1521.12" y="308.6109999999999" as="targetPoint" />
          </mxGeometry>
        </mxCell>
        <mxCell id="p3l2NKJmuj8cSq7E-Xql-15" value="" style="shape=image;verticalLabelPosition=bottom;labelBackgroundColor=default;verticalAlign=top;aspect=fixed;imageAspect=0;image=https://miro.medium.com/max/921/1*xklapNW3iN6S3_TNYOourw.png;" parent="1" vertex="1">
          <mxGeometry x="2640" y="440" width="520" height="375" as="geometry" />
        </mxCell>
        <mxCell id="rM9xooDROUFy-dyysIF4-8" style="edgeStyle=orthogonalEdgeStyle;rounded=0;orthogonalLoop=1;jettySize=auto;html=1;startArrow=box;startFill=0;endArrow=halfCircle;endFill=0;endSize=6;sourcePerimeterSpacing=20;targetPerimeterSpacing=20;" edge="1" parent="1">
          <mxGeometry relative="1" as="geometry">
            <mxPoint x="520" y="370" as="targetPoint" />
            <mxPoint x="420" y="342" as="sourcePoint" />
          </mxGeometry>
        </mxCell>
        <mxCell id="rM9xooDROUFy-dyysIF4-11" style="edgeStyle=orthogonalEdgeStyle;rounded=0;orthogonalLoop=1;jettySize=auto;html=1;startArrow=box;startFill=0;endArrow=halfCircle;endFill=0;endSize=6;sourcePerimeterSpacing=20;targetPerimeterSpacing=20;exitX=1;exitY=0.25;exitDx=0;exitDy=0;" edge="1" parent="1" source="nYYjxuZt-Mi0k5L1FoQl-1">
          <mxGeometry relative="1" as="geometry">
            <mxPoint x="550" y="278" as="targetPoint" />
            <mxPoint x="540" y="209.5" as="sourcePoint" />
          </mxGeometry>
        </mxCell>
        <mxCell id="GCHqNyVGhbBEgW2d87GE-1" style="edgeStyle=orthogonalEdgeStyle;rounded=0;orthogonalLoop=1;jettySize=auto;html=1;entryX=-0.007;entryY=0.496;entryDx=0;entryDy=0;entryPerimeter=0;endArrow=none;endFill=0;" edge="1" parent="1" source="GCHqNyVGhbBEgW2d87GE-2" target="GCHqNyVGhbBEgW2d87GE-4">
          <mxGeometry relative="1" as="geometry" />
        </mxCell>
        <mxCell id="GCHqNyVGhbBEgW2d87GE-2" value="&lt;div&gt;&amp;lt;&amp;lt;device&amp;gt;&amp;gt;&lt;/div&gt;&lt;div&gt;Client&lt;br&gt;&lt;/div&gt;" style="shape=cube;whiteSpace=wrap;html=1;boundedLbl=1;backgroundOutline=1;darkOpacity=0.05;darkOpacity2=0.1;" vertex="1" parent="1">
          <mxGeometry x="130" y="1100" width="120" height="80" as="geometry" />
        </mxCell>
        <mxCell id="GCHqNyVGhbBEgW2d87GE-3" style="edgeStyle=orthogonalEdgeStyle;rounded=0;orthogonalLoop=1;jettySize=auto;html=1;endArrow=none;endFill=0;" edge="1" parent="1" source="GCHqNyVGhbBEgW2d87GE-4" target="GCHqNyVGhbBEgW2d87GE-5">
          <mxGeometry relative="1" as="geometry" />
        </mxCell>
        <mxCell id="GCHqNyVGhbBEgW2d87GE-4" value="&lt;div&gt;&amp;lt;&amp;lt;device&amp;gt;&amp;gt;&lt;/div&gt;&lt;div&gt;Database&lt;br&gt;&lt;/div&gt;" style="shape=cube;whiteSpace=wrap;html=1;boundedLbl=1;backgroundOutline=1;darkOpacity=0.05;darkOpacity2=0.1;" vertex="1" parent="1">
          <mxGeometry x="340" y="1100" width="120" height="80" as="geometry" />
        </mxCell>
        <mxCell id="GCHqNyVGhbBEgW2d87GE-5" value="&lt;div&gt;&amp;lt;&amp;lt;device&amp;gt;&amp;gt;&lt;/div&gt;&lt;div&gt;Docker&lt;br&gt;&lt;/div&gt;" style="shape=cube;whiteSpace=wrap;html=1;boundedLbl=1;backgroundOutline=1;darkOpacity=0.05;darkOpacity2=0.1;" vertex="1" parent="1">
          <mxGeometry x="520" y="1100" width="120" height="80" as="geometry" />
        </mxCell>
      </root>
    </mxGraphModel>
  </diagram>
</mxfile>
